<svg data-v-423bf9ae="" xmlns="http://www.w3.org/2000/svg" viewBox="0 0 420 90" class="iconLeft"><!----><!----><!----><g data-v-423bf9ae="" id="b9879c64-757a-4cda-a819-6c3ed8ec77bc" fill="black" transform="matrix(4.497751394534302,0,0,4.497751394534302,137.63356844889313,-9.602700852294674)"><path d="M2.63 16.19L1.31 16.19L1.31 5.69L11.38 5.69L11.38 6.78L2.63 6.78L2.63 10.28L10.94 10.28L10.94 11.38L2.63 11.38L2.63 16.19ZM12.47 12.20L12.47 12.20L12.47 12.20Q12.47 10.99 12.73 10.19L12.73 10.19L12.73 10.19Q12.99 9.40 13.56 8.93L13.56 8.93L13.56 8.93Q14.14 8.47 15.05 8.28L15.05 8.28L15.05 8.28Q15.97 8.09 17.28 8.09L17.28 8.09L17.28 8.09Q18.59 8.09 19.51 8.28L19.51 8.28L19.51 8.28Q20.43 8.47 21 8.93L21 8.93L21 8.93Q21.57 9.40 21.83 10.19L21.83 10.19L21.83 10.19Q22.09 10.99 22.09 12.20L22.09 12.20L22.09 12.20Q22.09 13.41 21.83 14.21L21.83 14.21L21.83 14.21Q21.57 15.00 21 15.48L21 15.48L21 15.48Q20.43 15.95 19.51 16.14L19.51 16.14L19.51 16.14Q18.59 16.34 17.28 16.34L17.28 16.34L17.28 16.34Q15.97 16.34 15.05 16.14L15.05 16.14L15.05 16.14Q14.14 15.95 13.56 15.48L13.56 15.48L13.56 15.48Q12.99 15.00 12.73 14.21L12.73 14.21L12.73 14.21Q12.47 13.41 12.47 12.20ZM13.78 12.20L13.78 12.20L13.78 12.20Q13.78 12.85 13.83 13.34L13.83 13.34L13.83 13.34Q13.88 13.82 14.01 14.17L14.01 14.17L14.01 14.17Q14.14 14.52 14.38 14.74L14.38 14.74L14.38 14.74Q14.62 14.96 15.01 15.09L15.01 15.09L15.01 15.09Q15.40 15.22 15.96 15.26L15.96 15.26L15.96 15.26Q16.52 15.31 17.28 15.31L17.28 15.31L17.28 15.31Q17.94 15.31 18.45 15.28L18.45 15.28L18.45 15.28Q18.97 15.25 19.36 15.14L19.36 15.14L19.36 15.14Q19.74 15.03 20.02 14.83L20.02 14.83L20.02 14.83Q20.29 14.63 20.46 14.28L20.46 14.28L20.46 14.28Q20.62 13.93 20.70 13.42L20.70 13.42L20.70 13.42Q20.78 12.91 20.78 12.20L20.78 12.20L20.78 12.20Q20.78 11.49 20.70 11.00L20.70 11.00L20.70 11.00Q20.62 10.50 20.46 10.17L20.46 10.17L20.46 10.17Q20.29 9.83 20.02 9.64L20.02 9.64L20.02 9.64Q19.74 9.44 19.36 9.34L19.36 9.34L19.36 9.34Q18.97 9.24 18.45 9.21L18.45 9.21L18.45 9.21Q17.94 9.19 17.28 9.19L17.28 9.19L17.28 9.19Q16.63 9.19 16.11 9.21L16.11 9.21L16.11 9.21Q15.59 9.24 15.21 9.34L15.21 9.34L15.21 9.34Q14.82 9.44 14.55 9.64L14.55 9.64L14.55 9.64Q14.27 9.83 14.11 10.17L14.11 10.17L14.11 10.17Q13.94 10.50 13.86 11.00L13.86 11.00L13.86 11.00Q13.78 11.49 13.78 12.20ZM31.50 10.88L30.41 10.88L30.41 10.88Q30.41 10.38 30.33 10.06L30.33 10.06L30.33 10.06Q30.26 9.73 30.00 9.54L30.00 9.54L30.00 9.54Q29.73 9.34 29.21 9.27L29.21 9.27L29.21 9.27Q28.68 9.19 27.78 9.19L27.78 9.19L27.78 9.19Q26.90 9.19 26.35 9.34L26.35 9.34L26.35 9.34Q25.79 9.50 25.48 9.78L25.48 9.78L25.48 9.78Q25.16 10.06 25.05 10.45L25.05 10.45L25.05 10.45Q24.94 10.83 24.94 11.31L24.94 11.31L24.94 16.19L23.63 16.19L23.63 8.31L24.94 8.31L24.94 9.56L24.94 9.56Q25.01 9.35 25.19 9.10L25.19 9.10L25.19 9.10Q25.38 8.84 25.75 8.62L25.75 8.62L25.75 8.62Q26.13 8.39 26.73 8.24L26.73 8.24L26.73 8.24Q27.32 8.09 28.22 8.09L28.22 8.09L28.22 8.09Q29.24 8.09 29.89 8.27L29.89 8.27L29.89 8.27Q30.53 8.46 30.89 8.81L30.89 8.81L30.89 8.81Q31.25 9.16 31.37 9.68L31.37 9.68L31.37 9.68Q31.50 10.20 31.50 10.88L31.50 10.88ZM32.38 16.19L32.38 5.69L33.69 5.69L33.69 11.43L34.13 11.43L38.94 8.31L40.91 8.31L35.33 11.98L41.13 16.19L39.16 16.19L34.13 12.41L33.69 12.41L33.69 16.19L32.38 16.19ZM42.44 16.19L42.44 8.31L43.75 8.31L43.75 16.19L42.44 16.19ZM43.75 5.69L43.75 7L42.44 7L42.44 5.69L43.75 5.69ZM52.28 9.31L48.56 9.31L48.56 16.19L47.25 16.19L47.25 9.31L45.94 9.31L45.94 8.31L47.25 8.31L47.25 8.24L47.25 8.24Q47.25 7.44 47.43 6.91L47.43 6.91L47.43 6.91Q47.61 6.38 48.02 6.06L48.02 6.06L48.02 6.06Q48.43 5.74 49.10 5.60L49.10 5.60L49.10 5.60Q49.77 5.47 50.76 5.47L50.76 5.47L52.28 5.47L52.28 6.56L50.75 6.56L50.75 6.56Q50.13 6.56 49.71 6.59L49.71 6.59L49.71 6.59Q49.29 6.62 49.04 6.77L49.04 6.77L49.04 6.77Q48.78 6.93 48.67 7.27L48.67 7.27L48.67 7.27Q48.56 7.62 48.56 8.24L48.56 8.24L48.56 8.31L52.28 8.31L52.28 9.31ZM52.72 8.31L56.88 16.19L57.31 16.19L57.31 16.19Q57.20 16.41 57.12 16.60L57.12 16.60L57.12 16.60Q57.03 16.80 56.91 16.97L56.91 16.97L56.91 16.97Q56.79 17.14 56.60 17.28L56.60 17.28L56.60 17.28Q56.42 17.42 56.11 17.52L56.11 17.52L56.11 17.52Q55.81 17.62 55.36 17.67L55.36 17.67L55.36 17.67Q54.91 17.72 54.25 17.72L54.25 17.72L54.25 18.81L54.25 18.81Q55.02 18.81 55.58 18.74L55.58 18.74L55.58 18.74Q56.14 18.67 56.54 18.54L56.54 18.54L56.54 18.54Q56.95 18.40 57.23 18.21L57.23 18.21L57.23 18.21Q57.51 18.02 57.72 17.78L57.72 17.78L57.72 17.78Q57.92 17.53 58.08 17.24L58.08 17.24L58.08 17.24Q58.24 16.95 58.41 16.63L58.41 16.63L58.63 16.19L62.56 8.31L61.03 8.31L57.75 15.31L54.25 8.31L52.72 8.31Z"></path></g><!----><g data-v-423bf9ae="" id="e955f3b5-e50e-4559-8539-c7d7315d9c5e" transform="matrix(3.860175764033615,0,0,3.860175764033615,0.23718777546216074,-16.421744111390325)" stroke="none" fill="black"><path d="M12.289 5.343v19.9L1 13.954V5.343h11.289m1-1H0v10.026l13.289 13.289V4.343zM31 5.343v8.612L19.711 25.243v-19.9H31m1-1H18.711v23.315L32 14.369V4.343z"></path></g><!----></svg>